<?xml version="1.0" encoding="UTF-8" standalone="no"?>
<svg width="22px" height="24px" viewBox="0 0 22 24" version="1.1" xmlns="http://www.w3.org/2000/svg" xmlns:xlink="http://www.w3.org/1999/xlink" xmlns:sketch="http://www.bohemiancoding.com/sketch/ns">
    <!-- Generator: Sketch 3.0.4 (8054) - http://www.bohemiancoding.com/sketch -->
    <title>from-your-circles</title>
    <desc>Created with Sketch.</desc>
    <defs></defs>
    <g id="Page-1" stroke="none" stroke-width="1" fill="none" fill-rule="evenodd" sketch:type="MSPage">
        <path d="M22,7 C22,3.4 19.1,0.5 15.5,0.5 C13.2,0.5 11.2,1.7 10,3.5 L9.5,3.5 C4.3,3.5 0,7.8 0,13 C0,18.2 4.3,22.5 9.5,22.5 C14.7,22.5 19,18.2 19,13 L19,12.5 C20.8,11.3 22,9.3 22,7 L22,7 L22,7 Z M9.5,19.7 C5.8,19.7 2.8,16.7 2.8,13 C2.8,9.5 5.6,6.6 9,6.3 L9,7 C9,10.6 11.9,13.5 15.5,13.5 L16.2,13.5 C15.9,16.9 13,19.7 9.5,19.7 L9.5,19.7 L9.5,19.7 Z M15.5,10.7 C13.5,10.7 11.8,9 11.8,7 C11.8,5 13.5,3.3 15.5,3.3 C17.5,3.3 19.2,5 19.2,7 C19.2,9 17.5,10.7 15.5,10.7 L15.5,10.7 L15.5,10.7 Z" id="from-your-circles" fill="#FFFFFF" sketch:type="MSShapeGroup"></path>
    </g>
</svg>