<?xml version="1.0" encoding="UTF-8" standalone="no"?>
<svg width="24px" height="24px" viewBox="0 0 24 24" version="1.1" xmlns="http://www.w3.org/2000/svg" xmlns:xlink="http://www.w3.org/1999/xlink" xmlns:sketch="http://www.bohemiancoding.com/sketch/ns">
    <!-- Generator: Sketch 3.0.4 (8054) - http://www.bohemiancoding.com/sketch -->
    <title>flights</title>
    <desc>Created with Sketch.</desc>
    <defs></defs>
    <g id="Page-1" stroke="none" stroke-width="1" fill="none" fill-rule="evenodd" sketch:type="MSPage">
        <path d="M0,17.5 L1.8,11.5 L0,5.5 L1.2,5.5 C1.4,5.5 1.5,5.6 1.6,5.7 L4.3,9.8 L10.8,9.5 L8,0.5 L10,0.5 C10.2,0.5 10.4,0.6 10.5,0.7 L16,9.5 L22,9.5 C23.1,9.5 24,10.4 24,11.5 C24,12.6 23.1,13.5 22,13.5 L16,13.5 L10.5,22.3 C10.4,22.4 10.2,22.5 10,22.5 L8,22.5 L10.8,13.5 L4.3,13.2 L1.6,17.3 C1.5,17.4 1.4,17.5 1.2,17.5 L0,17.5 L0,17.5 L0,17.5 Z" id="flights" fill="#FFFFFF" sketch:type="MSShapeGroup"></path>
    </g>
</svg>