<?xml version="1.0" encoding="UTF-8" standalone="no"?>
<svg width="20px" height="22px" viewBox="0 0 20 22" version="1.1" xmlns="http://www.w3.org/2000/svg" xmlns:xlink="http://www.w3.org/1999/xlink" xmlns:sketch="http://www.bohemiancoding.com/sketch/ns">
    <!-- Generator: Sketch 3.0.4 (8054) - http://www.bohemiancoding.com/sketch -->
    <title>guide</title>
    <desc>Created with Sketch.</desc>
    <defs></defs>
    <g id="Page-1" stroke="none" stroke-width="1" fill="none" fill-rule="evenodd" sketch:type="MSPage">
        <path d="M19.5,0.5 L19.3,0.5 L13,2.6 L7,0.5 L0.4,2.4 C0.2,2.5 0,2.7 0,2.9 L0,20 C0,20.3 0.2,20.5 0.5,20.5 L0.7,20.5 L7,18.4 L13,20.5 L19.6,18.6 C19.8,18.5 20,18.3 20,18.1 L20,1 C20,0.7 19.8,0.5 19.5,0.5 L19.5,0.5 L19.5,0.5 Z M13,18.5 L7,16.4 L7,2.5 L13,4.6 L13,18.5 L13,18.5 Z" id="guide" fill="#FFFFFF" sketch:type="MSShapeGroup"></path>
    </g>
</svg>