<?xml version="1.0" encoding="UTF-8" standalone="no"?>
<svg width="16px" height="24px" viewBox="0 0 16 24" version="1.1" xmlns="http://www.w3.org/2000/svg" xmlns:xlink="http://www.w3.org/1999/xlink" xmlns:sketch="http://www.bohemiancoding.com/sketch/ns">
    <!-- Generator: Sketch 3.0.4 (8054) - http://www.bohemiancoding.com/sketch -->
    <title>hotels</title>
    <desc>Created with Sketch.</desc>
    <defs></defs>
    <g id="Page-1" stroke="none" stroke-width="1" fill="none" fill-rule="evenodd" sketch:type="MSPage">
        <path d="M5,22.5 L5,20.5 C5,19.4 5.9,18.5 7,18.5 L9,18.5 C10.1,18.5 11,19.4 11,20.5 L11,22.5 L16,22.5 L16,4.5 C16,3.4 15.1,2.5 14,2.5 L13,2.5 L13,1.5 C13,0.9 12.6,0.5 12,0.5 L4,0.5 C3.4,0.5 3,0.9 3,1.5 L3,2.5 L2,2.5 C0.9,2.5 0,3.4 0,4.5 L0,22.5 L5,22.5 L5,22.5 Z M5,15.5 L3,15.5 L3,13.5 L5,13.5 L5,15.5 L5,15.5 Z M5,11.5 L3,11.5 L3,9.5 L5,9.5 L5,11.5 L5,11.5 Z M5,7.5 L3,7.5 L3,5.5 L5,5.5 L5,7.5 L5,7.5 Z M9,15.5 L7,15.5 L7,13.5 L9,13.5 L9,15.5 L9,15.5 Z M9,11.5 L7,11.5 L7,9.5 L9,9.5 L9,11.5 L9,11.5 Z M9,7.5 L7,7.5 L7,5.5 L9,5.5 L9,7.5 L9,7.5 Z M13,15.5 L11,15.5 L11,13.5 L13,13.5 L13,15.5 L13,15.5 Z M13,11.5 L11,11.5 L11,9.5 L13,9.5 L13,11.5 L13,11.5 Z M13,7.5 L11,7.5 L11,5.5 L13,5.5 L13,7.5 L13,7.5 Z" id="hotels" fill="#FFFFFF" sketch:type="MSShapeGroup"></path>
    </g>
</svg>