<?xml version="1.0" encoding="UTF-8" standalone="no"?>
<svg width="17px" height="16px" viewBox="0 0 17 16" version="1.1" xmlns="http://www.w3.org/2000/svg" xmlns:xlink="http://www.w3.org/1999/xlink" xmlns:sketch="http://www.bohemiancoding.com/sketch/ns">
    <!-- Generator: Sketch 3.0.4 (8054) - http://www.bohemiancoding.com/sketch -->
    <title>SVGID_3_</title>
    <desc>Created with Sketch.</desc>
    <defs></defs>
    <g id="Page-1" stroke="none" stroke-width="1" fill="none" fill-rule="evenodd" sketch:type="MSPage">
        <path d="M0,9.5 L4,9.5 L4,5.5 L0,5.5 L0,9.5 L0,9.5 Z M0,14.5 L4,14.5 L4,10.5 L0,10.5 L0,14.5 L0,14.5 Z M0,4.5 L4,4.5 L4,0.5 L0,0.5 L0,4.5 L0,4.5 Z M5,9.5 L17,9.5 L17,5.5 L5,5.5 L5,9.5 L5,9.5 Z M5,14.5 L17,14.5 L17,10.5 L5,10.5 L5,14.5 L5,14.5 Z M5,0.5 L5,4.5 L17,4.5 L17,0.5 L5,0.5 L5,0.5 Z" id="SVGID_3_" fill="#A3A1A2" sketch:type="MSShapeGroup"></path>
    </g>
</svg>