<?xml version="1.0" encoding="UTF-8" standalone="no"?>
<svg width="61px" height="12px" viewBox="0 0 61 12" version="1.1" xmlns="http://www.w3.org/2000/svg" xmlns:xlink="http://www.w3.org/1999/xlink" xmlns:sketch="http://www.bohemiancoding.com/sketch/ns">
    <!-- Generator: Sketch 3.0.4 (8054) - http://www.bohemiancoding.com/sketch -->
    <title>SVGID_4_ + SVGID_5_</title>
    <desc>Created with Sketch.</desc>
    <defs>
        <path d="M20.8,7.6 L22.2,12 L18.5,9.3 L14.8,12 L16.2,7.6 L12.5,5 L17,5 L18.5,0.5 L20,5 L24.6,5 L20.8,7.6 L20.8,7.6 Z M8.8,7.6 L10.2,12 L6.5,9.3 L2.8,12 L4.2,7.6 L0.5,5 L5,5 L6.5,0.5 L8,5 L12.5,5 L8.8,7.6 L8.8,7.6 Z M32.8,7.6 L34.2,12 L30.5,9.3 L26.8,12 L28.2,7.6 L24.5,5 L29,5 L30.5,0.5 L32,5 L36.6,5 L32.8,7.6 L32.8,7.6 Z M44.8,7.6 L46.2,12 L42.5,9.3 L38.8,12 L40.2,7.6 L36.5,5 L41,5 L42.5,0.5 L44,5 L48.5,5 L44.8,7.6 L44.8,7.6 Z" id="path-1"></path>
    </defs>
    <g id="Page-1" stroke="none" stroke-width="1" fill="none" fill-rule="evenodd" sketch:type="MSPage">
        <g id="SVGID_4_-+-SVGID_5_" sketch:type="MSLayerGroup">
            <path d="M55,9.3 L58.7,12 L57.3,7.6 L61,5 L56.5,5 L55,0.5 L53.5,5 L49,5 L52.7,7.6 L51.3,12 L55,9.3 L55,9.3 Z" id="SVGID_4_" fill="#CCCCCC" sketch:type="MSShapeGroup"></path>
            <mask id="mask-2" sketch:name="SVGID_5_" fill="white">
                <use xlink:href="#path-1"></use>
            </mask>
            <use id="SVGID_5_" fill="#DB4C3F" sketch:type="MSShapeGroup" xlink:href="#path-1"></use>
        </g>
    </g>
</svg>