<?xml version="1.0" encoding="UTF-8" standalone="no"?>
<svg width="22px" height="20px" viewBox="0 0 22 20" version="1.1" xmlns="http://www.w3.org/2000/svg" xmlns:xlink="http://www.w3.org/1999/xlink" xmlns:sketch="http://www.bohemiancoding.com/sketch/ns">
    <!-- Generator: Sketch 3.0.4 (8054) - http://www.bohemiancoding.com/sketch -->
    <title>trips</title>
    <desc>Created with Sketch.</desc>
    <defs></defs>
    <g id="Page-1" stroke="none" stroke-width="1" fill="none" fill-rule="evenodd" sketch:type="MSPage">
        <path d="M20,4 L15,4 L15,2 C15,0.9 14.1,0 13,0 L9,0 C7.9,0 7,0.9 7,2 L7,4 L2,4 C0.9,4 0,4.9 0,6 L0,18 C0,19.1 0.9,20 2,20 L20,20 C21.1,20 22,19.1 22,18 L22,6 C22,4.9 21.1,4 20,4 L20,4 L20,4 Z M5,18 L3,18 L3,6 L5,6 L5,18 L5,18 Z M13,4 L9,4 L9,2 L13,2 L13,4 L13,4 Z M19,18 L17,18 L17,6 L19,6 L19,18 L19,18 Z" id="trips" fill="#FFFFFF" sketch:type="MSShapeGroup"></path>
    </g>
</svg>